<?xml version="1.0" encoding="UTF-8" standalone="no"?>
<svg
   width="128"
   height="128"
   viewBox="0 0 33.867 33.867"
   version="1.1"
   id="svg10"
   sodipodi:docname="logo-optimised.svg"
   inkscape:version="1.1.1 (3bf5ae0d25, 2021-09-20)"
   xmlns:inkscape="http://www.inkscape.org/namespaces/inkscape"
   xmlns:sodipodi="http://sodipodi.sourceforge.net/DTD/sodipodi-0.dtd"
   xmlns="http://www.w3.org/2000/svg"
   xmlns:svg="http://www.w3.org/2000/svg">
  <defs
     id="defs14" />
  <sodipodi:namedview
     id="namedview12"
     pagecolor="#ffffff"
     bordercolor="#666666"
     borderopacity="1.0"
     inkscape:pageshadow="2"
     inkscape:pageopacity="0.0"
     inkscape:pagecheckerboard="0"
     showgrid="false"
     inkscape:zoom="1.515625"
     inkscape:cx="63.670103"
     inkscape:cy="76.865979"
     inkscape:window-width="1920"
     inkscape:window-height="972"
     inkscape:window-x="0"
     inkscape:window-y="0"
     inkscape:window-maximized="1"
     inkscape:current-layer="svg10" />
  <path
     style="fill:#04b3fc;fill-opacity:1;stroke-width:1.32292;stroke-linecap:round;stroke-linejoin:round"
     d="M 10.511159,9.1489645 C 8.6974185,9.2704357 7.1667326,10.603959 6.8516448,12.262915 5.9434093,17.452832 4.1269385,27.832665 4.1269385,27.832665 h 6.2279005 l 2.179765,-12.4558 h 6.2279 l 1.089882,-6.2279004 c 0,0 -6.227485,0 -9.341227,-10e-8 z"
     id="path2"
     sodipodi:nodetypes="cccccccc" />
  <path
     style="fill:#004260;fill-opacity:1;stroke-width:1.32292;stroke-linecap:round;stroke-linejoin:round"
     d="m 23.35558,24.718716 c 1.81374,-0.121471 3.344425,-1.454994 3.659514,-3.113951 C 27.923329,16.414848 29.7398,6.035015 29.7398,6.035015 h -6.2279 l -2.179765,12.4558 h -6.2279 l -1.089883,6.227901 c 0,0 6.227485,0 9.341228,0 z"
     id="path1084"
     sodipodi:nodetypes="cccccccc" />
  <path
     style="font-weight:900;font-size:5.47406px;line-height:1.25;font-family:NeoSans;-inkscape-font-specification:'NeoSans Heavy';text-align:end;text-anchor:end;fill:#004260;stroke-width:.264583"
     d="M15.81 26.484c-.692 0-1.194.406-1.324 1.15l-.049.278c-.141.807.335 1.106.905 1.106.355 0 .653-.042.94-.13.07-.021.093-.051.104-.119l.067-.38c.008-.05-.017-.072-.064-.072h-.017c-.163.017-.584.034-.808.034-.308 0-.377-.14-.338-.363l.002-.009h1.313c.051 0 .096-.038.105-.093l.045-.253c.119-.68-.142-1.149-.88-1.149zm2.344 0c-.63 0-.972.245-1.047.676-.054.308.044.524.285.667l.466.28c.092.054.11.092.102.139-.014.08-.06.122-.22.122-.139 0-.47-.034-.714-.068h-.017c-.06 0-.095.039-.104.09l-.076.434c-.01.05.015.08.063.093.185.055.464.101.764.101.684 0 1.038-.329 1.112-.756.042-.236-.014-.473-.328-.659l-.448-.266c-.057-.033-.081-.063-.075-.097.011-.067.062-.093.172-.093.19 0 .595.051.715.068h.013c.046 0 .077-.034.086-.084l.078-.448c.01-.05-.02-.08-.068-.093a2.693 2.693 0 0 0-.759-.106zm2.42 0c-.38 0-.736.06-.964.106-.132.03-.163.063-.176.135l-.52 2.978c-.009.046.03.088.077.088h.633c.047 0 .092-.042.1-.088l.124-.71c.087.013.215.025.283.025.748 0 1.186-.43 1.304-1.102l.057-.33c.125-.713-.225-1.102-.918-1.102zm-6.29.005c-.177 0-.332.02-.557.22l.018-.102c.008-.047-.023-.085-.07-.085h-.608a.105.105 0 0 0-.1.085l-.398 2.28a.079.079 0 0 0 .076.094h.634c.05 0 .092-.047.1-.093l.287-1.64c.144-.07.321-.096.503-.096h.06c.041 0 .078-.043.086-.085l.086-.494c.008-.046-.023-.084-.07-.084zm10.568 0c-.312 0-.48.046-.734.215l.016-.097c.009-.047-.023-.085-.07-.085h-.586a.105.105 0 0 0-.1.085l-.399 2.28a.079.079 0 0 0 .077.094h.634c.05 0 .092-.047.1-.093l.287-1.64a.853.853 0 0 1 .333-.088c.19 0 .249.072.21.296l-.251 1.432a.079.079 0 0 0 .077.093h.633c.051 0 .093-.047.1-.093l.252-1.432c.088-.503.046-.967-.579-.967zm2.137 0c-.27 0-.644.059-.79.1-.054.018-.094.056-.102.102l-.072.41c-.01.05.019.085.065.085h.013c.202-.022.47-.03.74-.03.144 0 .272.038.236.245l-.022.122h-.181c-.706 0-1.122.182-1.21.689l-.01.05c-.099.57.257.756.59.756.233 0 .46-.093.642-.21l-.016.088c-.008.046.023.085.07.085h.587a.105.105 0 0 0 .099-.085l.261-1.495c.122-.693-.287-.912-.9-.912zm2.8 0c-.177 0-.333.02-.557.22l.017-.102c.008-.047-.023-.085-.07-.085h-.608a.105.105 0 0 0-.099.085l-.4 2.28a.079.079 0 0 0 .078.094h.633c.051 0 .093-.047.1-.093l.288-1.64c.143-.07.32-.096.502-.096h.06c.042 0 .079-.043.086-.085l.086-.494c.008-.046-.023-.084-.069-.084zm-7.603.033c-.047 0-.1.043-.109.089l-.398 2.277a.08.08 0 0 0 .076.093h.63c.046 0 .1-.047.109-.093l.398-2.277c.008-.046-.03-.089-.077-.089zm-6.494.592c.211 0 .286.152.241.405l-.002.013h-.625l.002-.013c.045-.253.181-.405.384-.405zm4.765.042c.237 0 .269.177.225.43l-.058.33c-.044.25-.14.435-.376.435-.101 0-.2-.013-.284-.021l.203-1.157c.082-.013.168-.017.29-.017zm6.342.807h.207l-.072.41a.822.822 0 0 1-.298.062c-.118 0-.208-.042-.183-.185l.008-.043c.03-.177.127-.244.338-.244z"
     id="path8" />
</svg>
